<?xml version="1.0" encoding="UTF-8"?>
<svg id="_Слой_1" data-name="Слой_1" xmlns="http://www.w3.org/2000/svg" version="1.1" xmlns:xlink="http://www.w3.org/1999/xlink" xmlns:xodm="http://www.corel.com/coreldraw/odm/2003" viewBox="0 0 294.5 73.7">
  <!-- Generator: Adobe Illustrator 29.2.1, SVG Export Plug-In . SVG Version: 2.1.0 Build 116)  -->
  <defs>
    <style>
      .st0 {
        fill: #fab949;
      }

      .st0, .st1 {
        fill-rule: evenodd;
      }

      .st2 {
        fill: #345c7d;
        stroke: #345c7d;
        stroke-miterlimit: 10;
        stroke-width: .2px;
      }

      .st1 {
        fill: #355c7d;
      }
    </style>
  </defs>
  <g id="_Слой_x5F_1" data-name="Слой_x5F_1">
    <g id="_2089210288512">
      <g id="_1511920412160">
        <path class="st1" d="M22.5,66.4c.7-7.9,2.5-17.1,7.6-23.5,8.9-11.2,17.2-11.3,17.7-13.9.3-1.4-1.8-3.3-7-8.4-2.6-2.3-5-2.2-8.1.4-2.6,2.1-19.4,18.8-19.6,19.1-.3.3-.9.9-1,1.8s0,24.4,0,24.4c.9,0,7,0,10.5,0h0s0,0,0,0Z"/>
        <path class="st0" d="M35.3,66.4s1.4-9.3,6.4-15.9c5-6.6,14.7-9.7,16.4-10.3,1.5-.5-1-4.4-2.1-4.5-1.2-.1-7.3,1.5-11.3,4.4-6.2,4.5-9.1,7.9-12.4,15.1-1.5,3.3-2,7.6-2,11.2h5.2s0,0,0,0Z"/>
        <path class="st0" d="M43.1,66.4c1.7,0,4.2,0,5,0s1.6-5.6,4.9-9.4c2-2.3,4.4-3.3,8.1-4,0-1.6,0-3.2,0-4.8-9.6-.3-16.8,9.2-18,18.3h0Z"/>
        <path class="st0" d="M61.1,66.4v-5.4c-2.5.8-4.1,2.5-4.8,5.4h4.8,0Z"/>
        <path class="st1" d="M10.6,39.1l22.4-22.4c1.6-1.6,5.6-1.7,7.4,0,1,.9,21.8,21.7,22.5,22.4,1,.9,2.6.6,3.9-.4,1.3-1,1.8-2.9,1.1-3.6l-5.7-5.7c0-4.2,0-8.4,0-12.5,0-2.2-5.2-2.2-5.2,0v7.4s-15.1-15.1-15.1-15.1c-2.2-2.2-7.2-2.2-9.5,0-8.9,8.8-17.5,17.4-26.2,26.1-1.8,1.8,2.2,6,4.4,3.9h0s0,0,0,0Z"/>
      </g>
    </g>
    <path class="st2" d="M78.8,43.2c0-3.5,1.1-6.3,3.4-8.6,2.3-2.3,5.1-3.5,8.6-3.5s6.5,1,8.6,3.1l-1.7,2.5c-.9-.8-1.9-1.4-3.2-1.9-1.2-.5-2.5-.7-3.7-.7-2.7,0-4.8.9-6.4,2.6-1.6,1.7-2.4,3.9-2.4,6.5s.8,4.8,2.4,6.6c1.6,1.8,3.7,2.7,6.4,2.7s2.6-.3,3.9-.8c1.3-.5,2.4-1.3,3.4-2.3l1.8,2.4c-2.5,2.5-5.6,3.8-9.1,3.8s-6.5-1.2-8.8-3.5c-2.2-2.4-3.4-5.3-3.4-8.8h0ZM107,55.1v-14.2h-5.9v-2.8h15v2.8h-5.9v14.2h-3.2ZM119.4,61.8v-23.7h3v2.8c-.1,0,0,0,0,0,.5-1,1.3-1.8,2.3-2.3,1-.6,2.1-.8,3.4-.8,2.3,0,4.1.8,5.4,2.4,1.3,1.6,2,3.8,2,6.4s-.7,4.8-2.1,6.5c-1.4,1.6-3.3,2.4-5.5,2.4s-4-1-5.3-2.9h0c0,.4.1.9.1,1.5v7.7h-3.3ZM122.5,46.7c0,1.6.4,3,1.3,4.2.9,1.2,2,1.8,3.5,1.8s2.5-.5,3.5-1.6c.9-1.1,1.4-2.6,1.4-4.4s-.4-3.3-1.3-4.4c-.9-1.1-2-1.7-3.5-1.7s-2.5.5-3.5,1.5c-.9,1-1.4,2.5-1.4,4.6h0ZM138.4,46.6c0-2.5.9-4.6,2.6-6.3,1.8-1.7,3.9-2.5,6.5-2.5s4.7.8,6.5,2.5c1.8,1.7,2.6,3.8,2.6,6.3s-.9,4.7-2.6,6.4c-1.8,1.7-3.9,2.5-6.5,2.5s-4.7-.8-6.5-2.5c-1.8-1.7-2.7-3.8-2.7-6.4h0ZM141.7,46.6c0,1.8.6,3.2,1.7,4.4,1.1,1.2,2.5,1.7,4.1,1.7s3-.6,4.1-1.7c1.1-1.2,1.7-2.6,1.7-4.4s-.6-3.2-1.7-4.3c-1.1-1.1-2.5-1.7-4.1-1.7s-3,.6-4.1,1.7c-1.1,1.1-1.7,2.6-1.7,4.3ZM168.1,36.2c-1.4,0-2.5-.4-3.5-1.2-1-.8-1.5-1.8-1.5-3.1v-.5h2.6v.5c0,.7.2,1.2.7,1.6.5.4,1,.6,1.6.6s1.2-.2,1.7-.6c.5-.4.7-.9.7-1.7v-.4h2.6v.5c0,1.3-.5,2.4-1.4,3.1-1,.8-2.1,1.2-3.5,1.2ZM160.6,55.1v-17h3.1v10.1c0,1.2,0,1.9-.1,2.3h0c.1-.3.6-1,1.5-2.3l7.3-10.1h3.1v17h-3.1v-10.1c0-.3,0-.8,0-1.3,0-.6,0-.9,0-.9h0s-.5.8-1.5,2.2l-7.3,10.1h-3.1ZM179.5,46.7c0-2.5.9-4.6,2.6-6.3,1.7-1.7,3.9-2.5,6.5-2.5s4.8.8,6.4,2.5l-1.5,2.3c-1.3-1.3-2.9-1.9-4.7-1.9s-3.1.6-4.2,1.7c-1.1,1.2-1.7,2.6-1.7,4.3s.6,3.2,1.7,4.4c1.1,1.2,2.6,1.7,4.3,1.7s1.9-.2,2.8-.6c.9-.4,1.7-1,2.4-1.7l1.3,2.4c-.8.8-1.8,1.5-3,2-1.2.5-2.5.7-3.8.7-2.7,0-4.8-.8-6.5-2.5-1.7-1.7-2.5-3.8-2.5-6.4h0ZM198.9,55.1v-17h3.3v6.8h2.4l4.6-6.8h3.7l-5.7,8.1h0c0,0,6.3,8.9,6.3,8.9h-3.9l-5.1-7.3h-2.4v7.3h-3.3ZM214.8,50.5c0-1.3.3-2.3,1-3.2.7-.8,1.6-1.5,2.8-1.8s2.2-.6,3.2-.8c1-.1,2-.2,3.1-.2h.9v-.3c0-2.5-1.2-3.7-3.7-3.7s-3.2.5-4.8,1.6l-1.3-2.4c.7-.6,1.6-1.1,2.8-1.4,1.2-.4,2.4-.6,3.5-.6,2.1,0,3.8.6,5,1.7,1.2,1.1,1.7,2.8,1.7,4.9v10.7h-3v-3c.1,0,0,0,0,0-.5,1-1.3,1.8-2.3,2.5-1,.6-2.1,1-3.3,1s-2.9-.5-4-1.4c-1.1-.9-1.7-2.1-1.7-3.7h0ZM218.1,50.2c0,.7.3,1.4.8,1.9.6.5,1.3.8,2.3.8s2.4-.6,3.3-1.7c.8-1.1,1.3-2.4,1.3-3.7v-.6h-.8c-4.6,0-6.9,1.1-6.9,3.3ZM233.8,55.1v-17h3.3v6.9h8.6v-6.9h3.3v17h-3.3v-7.3h-8.6v7.3h-3.3ZM252.8,46.7c0-2.7.8-4.8,2.4-6.4,1.6-1.6,3.6-2.4,6.1-2.4s4.1.8,5.4,2.3c1.3,1.5,1.9,3.4,1.9,5.7s0,.7-.1,1.4h-12.3c0,1.8.7,3.1,1.8,4.1,1.1,1,2.5,1.5,4,1.5s3.5-.7,5-2l1.4,2.4c-.8.7-1.8,1.3-3,1.8-1.2.4-2.4.7-3.6.7-2.6,0-4.8-.8-6.5-2.5-1.7-1.7-2.5-3.8-2.5-6.4h0ZM256.3,44.7h9.1c0-1.4-.5-2.5-1.2-3.3-.8-.8-1.7-1.2-2.9-1.2s-2.4.4-3.3,1.2c-.9.8-1.5,1.9-1.7,3.3ZM272.6,61.8v-23.7h3v2.8c-.1,0,0,0,0,0,.5-1,1.3-1.8,2.3-2.3,1-.6,2.1-.8,3.4-.8,2.3,0,4.1.8,5.4,2.4,1.3,1.6,2,3.8,2,6.4s-.7,4.8-2.1,6.5c-1.4,1.6-3.3,2.4-5.5,2.4s-4-1-5.3-2.9h0c0,.4.1.9.1,1.5v7.7h-3.3ZM275.8,46.7c0,1.6.4,3,1.3,4.2.9,1.2,2,1.8,3.5,1.8s2.5-.5,3.5-1.6c.9-1.1,1.4-2.6,1.4-4.4s-.4-3.3-1.3-4.4c-.9-1.1-2-1.7-3.5-1.7s-2.5.5-3.5,1.5c-.9,1-1.4,2.5-1.4,4.6h0Z"/>
  </g>
</svg>