<?xml version="1.0" encoding="UTF-8"?>
<svg id="_Слой_1" data-name="Слой_1" xmlns="http://www.w3.org/2000/svg" version="1.1" xmlns:xlink="http://www.w3.org/1999/xlink" xmlns:xodm="http://www.corel.com/coreldraw/odm/2003" viewBox="0 0 185.9 51.3">
  <!-- Generator: Adobe Illustrator 29.2.1, SVG Export Plug-In . SVG Version: 2.1.0 Build 116)  -->
  <defs>
    <style>
      .st0 {
        fill: #fab949;
      }

      .st0, .st1 {
        fill-rule: evenodd;
      }

      .st2 {
        fill: #345c7d;
        stroke: #345c7d;
        stroke-miterlimit: 10;
        stroke-width: 0px;
      }

      .st1 {
        fill: #355c7d;
      }
    </style>
  </defs>
  <g id="_Слой_x5F_1" data-name="Слой_x5F_1">
    <g id="_2089210288512">
      <g id="_1511920412160">
        <path class="st1" d="M20.2,42.9c.4-4.6,1.5-10,4.4-13.7,5.2-6.5,10-6.6,10.3-8.1.2-.8-1.1-1.9-4.1-4.9-1.5-1.4-2.9-1.3-4.7.2-1.5,1.2-11.3,11-11.5,11.1-.2.2-.6.5-.6,1.1s0,14.2,0,14.3c.5,0,4.1,0,6.1,0h0s0,0,0,0Z"/>
        <path class="st0" d="M27.7,42.9s.8-5.4,3.7-9.3c2.9-3.8,8.6-5.7,9.6-6,.9-.3-.6-2.6-1.2-2.6-.7,0-4.2.8-6.6,2.6-3.6,2.6-5.3,4.6-7.2,8.8-.9,1.9-1.2,4.4-1.2,6.5h3s0,0,0,0Z"/>
        <path class="st0" d="M32.2,42.8c1,0,2.4,0,2.9,0s.9-3.2,2.8-5.5c1.2-1.4,2.6-1.9,4.7-2.4,0-.9,0-1.9,0-2.8-5.6-.2-9.8,5.4-10.5,10.7h0Z"/>
        <path class="st0" d="M42.7,42.8v-3.1c-1.5.4-2.4,1.5-2.8,3.1h2.8,0Z"/>
        <path class="st1" d="M13.3,26.9l13.1-13c1-1,3.3-1,4.3,0,.6.5,12.7,12.7,13.1,13.1.6.6,1.5.4,2.3-.2.7-.6,1-1.7.6-2.1l-3.3-3.3c0-2.4,0-4.9,0-7.3,0-1.3-3-1.3-3,0v4.3s-8.8-8.8-8.8-8.8c-1.3-1.3-4.2-1.3-5.5,0-5.2,5.2-10.2,10.2-15.3,15.2-1.1,1.1,1.3,3.5,2.6,2.3h0s0,0,0,0Z"/>
      </g>
    </g>
    <path class="st2" d="M53,29.3c0-2,.7-3.7,2-5,1.3-1.3,3-2,5-2s3.8.6,5,1.8l-1,1.4c-.5-.5-1.1-.8-1.8-1.1-.7-.3-1.4-.4-2.1-.4-1.6,0-2.8.5-3.7,1.5-.9,1-1.4,2.3-1.4,3.8s.5,2.8,1.4,3.9c.9,1.1,2.2,1.6,3.7,1.6s1.5-.2,2.3-.5c.7-.3,1.4-.8,2-1.3l1,1.4c-1.5,1.5-3.2,2.2-5.3,2.2s-3.8-.7-5.1-2.1c-1.3-1.4-2-3.1-2-5.1h0ZM69.5,36.3v-8.3h-3.4v-1.6h8.8v1.6h-3.5v8.3h-1.9ZM76.7,40.2v-13.8h1.8v1.6c0,0,0,0,0,0,.3-.6.8-1,1.3-1.4.6-.3,1.2-.5,2-.5,1.3,0,2.4.5,3.2,1.4.8,1,1.2,2.2,1.2,3.8s-.4,2.8-1.3,3.8c-.8.9-1.9,1.4-3.2,1.4s-2.3-.6-3.1-1.7h0c0,.2,0,.5,0,.9v4.5h-1.9ZM78.5,31.4c0,.9.3,1.8.8,2.5.5.7,1.2,1,2,1s1.5-.3,2-.9c.5-.6.8-1.5.8-2.6s-.3-1.9-.8-2.6c-.5-.6-1.2-1-2-1s-1.5.3-2,.9c-.5.6-.8,1.5-.8,2.7h0ZM87.8,31.3c0-1.5.5-2.7,1.5-3.7,1-1,2.3-1.5,3.8-1.5s2.8.5,3.8,1.5c1,1,1.5,2.2,1.5,3.7s-.5,2.7-1.5,3.7c-1,1-2.3,1.5-3.8,1.5s-2.7-.5-3.8-1.5c-1-1-1.6-2.2-1.6-3.7h0ZM89.7,31.3c0,1,.3,1.9,1,2.5.7.7,1.5,1,2.4,1s1.7-.3,2.4-1c.7-.7,1-1.5,1-2.5s-.3-1.9-1-2.5c-.7-.7-1.5-1-2.4-1s-1.8.3-2.4,1c-.7.7-1,1.5-1,2.5ZM105.1,25.3c-.8,0-1.5-.2-2-.7-.6-.4-.8-1.1-.8-1.8v-.3h1.5v.3c0,.4.1.7.4.9.3.2.6.3,1,.3s.7-.1,1-.3c.3-.2.4-.6.4-1v-.3h1.5v.3c0,.8-.3,1.4-.8,1.8-.6.4-1.2.7-2.1.7ZM100.7,36.3v-9.9h1.8v5.9c0,.7,0,1.1,0,1.3h0c0-.2.4-.6.9-1.3l4.3-5.9h1.8v9.9h-1.8v-5.9c0-.2,0-.4,0-.8,0-.3,0-.5,0-.5h0s-.3.5-.9,1.3l-4.3,5.9h-1.8ZM111.8,31.3c0-1.5.5-2.7,1.5-3.7,1-1,2.3-1.5,3.8-1.5s2.8.5,3.7,1.4l-.9,1.3c-.8-.8-1.7-1.1-2.7-1.1s-1.8.3-2.5,1c-.7.7-1,1.5-1,2.5s.3,1.9,1,2.5c.7.7,1.5,1,2.5,1s1.1-.1,1.7-.4c.6-.2,1-.6,1.4-1l.8,1.4c-.5.5-1,.9-1.7,1.2-.7.3-1.4.4-2.2.4-1.6,0-2.8-.5-3.8-1.5-1-1-1.5-2.2-1.5-3.7h0ZM123.1,36.3v-9.9h1.9v4h1.4l2.7-4h2.1l-3.3,4.7h0s3.7,5.2,3.7,5.2h-2.2l-3-4.3h-1.4v4.3h-1.9ZM132.3,33.6c0-.7.2-1.3.6-1.8.4-.5.9-.8,1.6-1.1s1.3-.4,1.9-.4c.6,0,1.2-.1,1.8-.1h.5v-.2c0-1.4-.7-2.2-2.2-2.2s-1.9.3-2.8,1l-.8-1.4c.4-.3,1-.6,1.6-.8.7-.2,1.4-.3,2.1-.3,1.3,0,2.2.3,2.9,1,.7.7,1,1.6,1,2.9v6.3h-1.8v-1.8c0,0,0,0,0,0-.3.6-.7,1.1-1.3,1.4-.6.4-1.2.6-1.9.6s-1.7-.3-2.3-.8c-.7-.5-1-1.2-1-2.1h0ZM134.2,33.4c0,.4.2.8.5,1.1.3.3.8.5,1.4.5s1.4-.3,1.9-1c.5-.7.7-1.4.7-2.2v-.4h-.5c-2.7,0-4,.6-4,1.9ZM143.4,36.3v-9.9h1.9v4h5v-4h1.9v9.9h-1.9v-4.2h-5v4.2h-1.9ZM154.5,31.3c0-1.5.5-2.8,1.4-3.8.9-1,2.1-1.4,3.6-1.4s2.4.4,3.1,1.3c.8.9,1.1,2,1.1,3.3s0,.4,0,.8h-7.2c0,1,.4,1.8,1,2.4.6.6,1.4.9,2.4.9s2.1-.4,2.9-1.2l.8,1.4c-.5.4-1.1.8-1.7,1-.7.3-1.4.4-2.1.4-1.5,0-2.8-.5-3.8-1.5-1-1-1.5-2.2-1.5-3.7h0ZM156.5,30.2h5.3c0-.8-.3-1.5-.7-1.9-.4-.5-1-.7-1.7-.7s-1.4.2-1.9.7c-.5.5-.9,1.1-1,1.9ZM166,40.2v-13.8h1.8v1.6c0,0,0,0,0,0,.3-.6.8-1,1.3-1.4.6-.3,1.2-.5,2-.5,1.3,0,2.4.5,3.2,1.4.8,1,1.2,2.2,1.2,3.8s-.4,2.8-1.3,3.8c-.8.9-1.9,1.4-3.2,1.4s-2.3-.6-3.1-1.7h0c0,.2,0,.5,0,.9v4.5h-1.9ZM167.9,31.4c0,.9.3,1.8.8,2.5.5.7,1.2,1,2,1s1.5-.3,2-.9c.5-.6.8-1.5.8-2.6s-.3-1.9-.8-2.6c-.5-.6-1.2-1-2-1s-1.5.3-2,.9c-.5.6-.8,1.5-.8,2.7h0Z"/>
  </g>
</svg>