<?xml version="1.0" encoding="UTF-8" standalone="no"?>
<svg
   xmlns:dc="http://purl.org/dc/elements/1.1/"
   xmlns:cc="http://creativecommons.org/ns#"
   xmlns:rdf="http://www.w3.org/1999/02/22-rdf-syntax-ns#"
   xmlns:svg="http://www.w3.org/2000/svg"
   xmlns="http://www.w3.org/2000/svg"
   xml:space="preserve"
   style="enable-background:new 0 0 28.3 28.3;"
   viewBox="0 0 28.3 28.3"
   y="0px"
   x="0px"
   id="Слой_1"
   version="1.1"><metadata
   id="metadata13"><rdf:RDF><cc:Work
       rdf:about=""><dc:format>image/svg+xml</dc:format><dc:type
         rdf:resource="http://purl.org/dc/dcmitype/StillImage" /><dc:title></dc:title></cc:Work></rdf:RDF></metadata><defs
   id="defs11" />
<style
   id="style2"
   type="text/css">
	.st0{fill:#FFFFFF;}
</style>
<g
   style="fill:#000000"
   id="g6">
	<path
   style="fill:#000000"
   id="path4"
   d="M16.8,21.2c-0.4,0-0.9-0.1-1.3-0.2c-1.7-0.5-3.3-1.5-4.9-3c-2.4-2.4-3.2-4.8-3.4-6.4l0,0C7,10.1,7.7,8.5,9,7.5   l0.1-0.1C9.6,7,10.4,7,10.9,7.5l1.3,1.3c0.5,0.5,0.5,1.4,0,1.9l-0.6,0.8c-0.3,0.4-0.4,0.9-0.2,1.3c0.6,1.4,1.9,3.8,4.1,4.3   c0.4,0.1,0.8,0,1.1-0.3l1-0.7c0.5-0.5,1.4-0.5,1.9,0l1.3,1.3c0.5,0.5,0.5,1.3,0.1,1.8l-0.1,0.1C19.8,20.5,18.3,21.2,16.8,21.2z    M7.8,11.6c0.2,1.5,0.9,3.7,3.2,6c1.5,1.5,3,2.4,4.6,2.9c1.7,0.5,3.6-0.2,4.7-1.6l0.1-0.1c0.2-0.3,0.2-0.7-0.1-1l-1.3-1.3   c-0.3-0.3-0.8-0.3-1.1,0l0,0l-1,0.8c-0.5,0.4-1.1,0.5-1.6,0.4c-2.4-0.5-3.9-3.1-4.5-4.6c-0.3-0.6-0.2-1.4,0.2-1.9l0.6-0.8   c0.3-0.3,0.3-0.8,0-1.1l-1.3-1.3c-0.2-0.2-0.7-0.3-1-0.1L9.4,8C8.3,8.8,7.7,10.2,7.8,11.6L7.8,11.6z"
   class="st0" />
</g>
<path
   id="path820"
   d="M 15.337161,20.353138 C 13.717295,19.756195 12.355706,18.852399 10.974103,17.457025 9.0036938,15.466977 7.701505,12.699405 7.8828274,10.887067 8.0048066,9.6678713 9.1495991,7.8664405 9.8024073,7.8664405 c 0.3035237,0 1.9979237,1.6429899 1.9964157,1.9358422 -4.56e-4,0.089471 -0.27027,0.5580883 -0.599576,1.0413713 -0.797195,1.169948 -0.807869,1.593253 -0.0769,3.049723 0.884413,1.762213 1.839886,2.820278 3.1422,3.479589 1.25961,0.637691 1.976669,0.548398 3.134424,-0.390321 1.024617,-0.830768 1.213005,-0.812996 2.228377,0.210216 1.051221,1.059338 1.073017,1.322475 0.176657,2.132702 -0.916359,0.828303 -1.734777,1.169713 -2.907945,1.213072 -0.705478,0.02607 -1.117975,-0.02301 -1.558899,-0.185497 z"
   style="fill:#000000;stroke:#000000;stroke-width:1.12;stroke-opacity:1;stroke-miterlimit:4;stroke-dasharray:none" /></svg>